<svg width="24" height="24" viewBox="0 0 24 24" fill="none" xmlns="http://www.w3.org/2000/svg">
<path d="M21.9629 0.799545H2.03619C1.87381 0.799545 1.71302 0.831536 1.56301 0.89369C1.41299 0.955844 1.2767 1.04694 1.1619 1.16178C1.0471 1.27663 0.956051 1.41296 0.893954 1.563C0.831857 1.71303 0.799927 1.87383 0.799988 2.03621V21.9629C0.799988 22.2908 0.930215 22.6053 1.16203 22.8372C1.39385 23.0691 1.70828 23.1994 2.03619 23.1995H12.7644V14.5256H9.84539V11.1441H12.7644V8.65121C12.7644 5.75788 14.5307 4.18241 17.1119 4.18241C17.983 4.17979 18.8537 4.22419 19.7201 4.31541V7.33894H17.9299C16.5267 7.33894 16.256 8.00628 16.256 8.98488V11.1427H19.6043L19.1666 14.5233H16.2551V23.1995H21.9624C22.2905 23.1995 22.6051 23.0693 22.8372 22.8374C23.0692 22.6055 23.1997 22.2909 23.2 21.9629V2.03575C23.1999 1.87334 23.1679 1.71254 23.1057 1.56253C23.0435 1.41251 22.9523 1.27622 22.8374 1.16143C22.7226 1.04663 22.5862 0.955594 22.4361 0.893502C22.2861 0.831411 22.1253 0.799484 21.9629 0.799545Z" fill="#3B5998"/>
</svg>
