<svg width="22" height="22" viewBox="0 0 22 22" fill="none" xmlns="http://www.w3.org/2000/svg">
<path d="M11.2601 9.10493V12.9646H16.9918C16.8832 13.6414 16.6389 14.2892 16.2735 14.8691C15.908 15.449 15.4291 15.949 14.8654 16.339C13.8012 17.0526 12.5408 17.4161 11.2601 17.379C9.94501 17.3713 8.66574 16.9497 7.60378 16.174C6.54182 15.3982 5.75109 14.3078 5.34379 13.0574C5.11651 12.3951 4.9994 11.7001 4.99712 10.9999C5.00125 10.301 5.11426 9.60698 5.33209 8.94287C5.74341 7.69262 6.53677 6.60301 7.60032 5.82767C8.66387 5.05232 9.94395 4.63034 11.2601 4.62123C12.7503 4.59796 14.1916 5.15289 15.2814 6.16953L18.2164 3.3039C16.3339 1.53793 13.8411 0.568939 11.2601 0.599902C9.48548 0.599166 7.74023 1.05273 6.19053 1.9174C4.64083 2.78207 3.33827 4.02906 2.40691 5.53962C1.47554 7.05018 0.946372 8.77401 0.869793 10.547C0.793213 12.3199 1.17177 14.083 1.96942 15.6682C2.83403 17.3913 4.16087 18.8399 5.80159 19.8521C7.44232 20.8643 9.33225 21.4002 11.2601 21.3999C13.7933 21.4715 16.2578 20.5701 18.1471 18.8809C20.1118 17.0666 21.2441 14.3972 21.2441 11.2309C21.2564 10.5158 21.1827 9.80191 21.0244 9.1045L11.2601 9.10493Z" fill="#4285F4"/>
</svg>
